Life Of Pi 2012 Hindi Movies ESubs HD DvDRip XviD Sample Included ~ rDX

Screen Shots :
 
http://myimghosting.serveftp.com/LifeOfPiDVD.html
 
http://myimghost.cwahi.net/LifeOfPiDVD.html


Format                                   : AVI
Format/Info                              : Audio Video Interleave
File size                                : 687 MiB
Duration                                 : 1h 58mn
Overall bit rate                         : 809 Kbps
Writing library                          : MPlayer

Video
ID                                       : 0
Format                                   : MPEG-4 Visual
Format profile                           : Advanced Simple@L5
Format settings, BVOP                    : 2
Format settings, QPel                    : Yes
Format settings, GMC                     : No warppoints
Format settings, Matrix                  : Default (H.263)
Codec ID                                 : XVID
Codec ID/Hint                            : XviD
Duration                                 : 1h 58mn
Bit rate                                 : 710 Kbps
Width                                    : 640 pixels
Height                                   : 352 pixels
Display aspect ratio                     : 16:9
Frame rate                               : 23.976 fps
Color space                              : YUV
Chroma subsampling                       : 4:2:0
Bit depth                                : 8 bits
Scan type                                : Progressive
Compression mode                         : Lossy
Bits/(Pixel*Frame)                       : 0.131
Stream size                              : 603 MiB (88%)
Writing library                          : XviD 1.2.1 (UTC 2008-12-04)

Audio
ID                                       : 1
Format                                   : MPEG Audio
Format version                           : Version 1
Format profile                           : Layer 3
Mode                                     : Joint stereo
Mode extension                           : MS Stereo
Codec ID                                 : 55
Codec ID/Hint                            : MP3
Duration                                 : 1h 56mn
Bit rate mode                            : Constant
Bit rate                                 : 96.0 Kbps
Channel(s)                               : 2 channels
Sampling rate                            : 32.0 KHz
Compression mode                         : Lossy
Stream size                              : 80.2 MiB (12%)
Alignment                                : Split accross interleaves
Interleave, duration                     : 508 ms (12.18 video frames)
Interleave, preload duration             : 500 ms